<svg xmlns="http://www.w3.org/2000/svg" viewBox="0 0 64 64" role="img" aria-labelledby="title">
  <title>Stockbridge Coffee Golden Bean Cursor</title>
  <defs>
    <radialGradient id="beanCore" cx="30" cy="18" r="32" gradientUnits="userSpaceOnUse">
      <stop offset="0" stop-color="#f8e1a7"/>
      <stop offset="0.4" stop-color="#e5b862"/>
      <stop offset="0.78" stop-color="#c7832a"/>
      <stop offset="1" stop-color="#8f5518"/>
    </radialGradient>
    <linearGradient id="edgeShade" x1="16" y1="12" x2="52" y2="56" gradientUnits="userSpaceOnUse">
      <stop offset="0" stop-color="#fceec4" stop-opacity="0.6"/>
      <stop offset="0.28" stop-color="#f9df9b" stop-opacity="0.25"/>
      <stop offset="0.58" stop-color="#b46b1f" stop-opacity="0"/>
      <stop offset="1" stop-color="#3d1c07" stop-opacity="0.55"/>
    </linearGradient>
    <linearGradient id="highlightLine" x1="28" y1="10" x2="36" y2="54" gradientUnits="userSpaceOnUse">
      <stop offset="0" stop-color="#fff7d6"/>
      <stop offset="0.45" stop-color="#fde7ab"/>
      <stop offset="1" stop-color="#f6cf74"/>
    </linearGradient>
  </defs>
  <path d="M32 4c-11.3 2.1-19 16.7-19 30.3S20.7 62.8 32 60c11.3-2.8 19-16.7 19-30.3S43.3 6.1 32 4z" fill="url(#beanCore)"/>
  <path d="M32 4c-11.3 2.1-19 16.7-19 30.3S20.7 62.8 32 60c11.3-2.8 19-16.7 19-30.3S43.3 6.1 32 4z" fill="none" stroke="#301b0a" stroke-width="0.9" opacity="0.28"/>
  <path d="M37 8.8c5.1 3.8 8.8 12.9 8.8 25.7S42.1 55.2 37 59c2.8-.9 5.2-2.4 7.3-4.5 5.1-4.2 9.3-12.9 9.3-23s-4.2-18.8-9.3-23c-2.1-2.1-4.5-3.6-7.3-4.5z" fill="url(#edgeShade)" opacity="0.95"/>
  <path d="M33 10.5C27 14.8 36.5 19.5 29.2 26.3 23.3 31.9 32.3 36.4 27.3 43.5" fill="none" stroke="url(#highlightLine)" stroke-width="4.6" stroke-linecap="round" stroke-linejoin="round" opacity="0.96"/>
  <path d="M33.8 12.8c-5 3.5 3.8 7.6-2.3 13.8-5.5 5.6 3.4 9.5-2 16.4" fill="none" stroke="#fffbe6" stroke-width="2.2" stroke-linecap="round" stroke-linejoin="round" opacity="0.65"/>
</svg>
