<svg xmlns="http://www.w3.org/2000/svg" viewBox="0 0 64 64" role="img" aria-labelledby="title">
  <title>Stockbridge Coffee Golden Bean</title>
  <defs>
    <linearGradient id="beanGradient" x1="8" y1="12" x2="56" y2="52" gradientUnits="userSpaceOnUse">
      <stop offset="0" stop-color="#f7d899"/>
      <stop offset="0.45" stop-color="#e4b554"/>
      <stop offset="1" stop-color="#c17a1a"/>
    </linearGradient>
    <linearGradient id="highlight" x1="20" y1="10" x2="38" y2="42" gradientUnits="userSpaceOnUse">
      <stop offset="0" stop-color="#fff6dd" stop-opacity="0.9"/>
      <stop offset="1" stop-color="#fff6dd" stop-opacity="0"/>
    </linearGradient>
    <linearGradient id="shadow" x1="34" y1="16" x2="50" y2="54" gradientUnits="userSpaceOnUse">
      <stop offset="0" stop-color="#b8741c" stop-opacity="0"/>
      <stop offset="1" stop-color="#8a4d11" stop-opacity="0.6"/>
    </linearGradient>
  </defs>
  <path d="M32 6c-9.5 1.9-16 14.2-16 26 0 11.7 6.3 23.2 16 26 9.7-2.8 16-14.3 16-26S41.5 7.9 32 6z" fill="url(#beanGradient)"/>
  <path d="M27.5 10.5C23 14.2 19.2 22 19.2 32s3.8 17.8 8.3 21.5c1.2.9 2.4 1.5 3.7 1.9-4.5-3.5-7.7-12-7.7-23.4s3.2-19.9 7.7-23.4a12 12 0 0 0-3.7 1.9z" fill="url(#highlight)"/>
  <path d="M36.5 10.5c4.5 3.5 7.7 12 7.7 23.4S41 53.8 36.5 57.5c1.4-.4 2.6-1 3.7-1.9 4.5-3.7 8.3-11.5 8.3-21.5s-3.8-17.8-8.3-21.5a12 12 0 0 0-3.7-1.9z" fill="url(#shadow)"/>
</svg>
